<svg xmlns="http://www.w3.org/2000/svg" width="260" height="210" viewBox="0 0 260 210">
  <path id="Icon_awesome-user-circle" data-name="Icon awesome-user-circle" d="M130,.563c-71.815,0-130,47-130,105s58.185,105,130,105,130-47,130-105S201.814.563,130,.563Zm0,40.645c25.476,0,46.129,16.681,46.129,37.258S155.476,115.724,130,115.724,83.871,99.042,83.871,78.466,104.524,41.208,130,41.208Zm0,145.645c-30.77,0-58.343-11.262-76.794-28.875,9.855-14.988,29.145-25.319,51.633-25.319a15.659,15.659,0,0,1,3.722.466,80.131,80.131,0,0,0,42.879,0,15.658,15.658,0,0,1,3.722-.466c22.488,0,41.778,10.331,51.633,25.319C188.343,175.591,160.77,186.853,130,186.853Z" transform="translate(0 -0.563)" fill="#232323"/>
</svg>
